<svg enable-background="new 0 0 500 500" viewBox="0 0 500 500" xmlns="http://www.w3.org/2000/svg"><path d="m0 0h500v500h-500z" fill="#fff"/><path d="m440 407.7h-380c-6.6 0-12-5.4-12-12v-229.5c0-6.6 5.4-12 12-12h380c6.6 0 12 5.4 12 12v229.5c0 6.6-5.4 12-12 12z" fill="#e1faff"/><circle cx="388.9" cy="154" fill="#73c8f0" r="52"/><path d="m177.7 140.6h64.7v130.9h-64.7z" fill="#73c8f0"/><path d="m155.7 277.8c-.6 5.8-4.4 8.2-9.4 8.2s-7.1-5-7.1-10.8 1.9-9.2 7.7-9.2c7.3 0 9.4 5.8 8.8 11.8z" fill="#0091c8"/><path d="m439.5 411.6h-362.1c-2.4 0-4.3-1.9-4.3-4.3h370.7c0 2.3-1.9 4.3-4.3 4.3z" fill="#afe6ff"/><path d="m134.5 404.3c1.6 1.1 3.5 1.9 6.8 1.5.4-1.3.4-3 0-4.8h-6.3c1 1.2.6 2.6-.5 3.3z" fill="#c8e6eb"/><path d="m143 405.5c-.2-.4-.7-.7-1.2-.7-1.4.1-4.4.6-6.2-.8-.8-.6-1.8-.7-2.7-.6-2.9.5-8 1.5-8.7 5.8 0 0 6.2.8 10.5.1 3.5-.6 8.7-1.8 8.7-1.8-.1-.6 0-1.2-.4-2z" fill="#73c8f0"/><path d="m164.4 404.2-7.5 1.6c-.7-1.4-.6-3.1 0-4.8h6.3c-.4 1.3-.6 2.4 1.2 3.2z" fill="#c8e6eb"/><path d="m109.8 407.5c-17.5-45.7-22.5-76.4-14.7-91.5 3.8-7.4 9.9-9.7 14.1-10.7 5.2-1.3 17.4-1 17.9-1v1.3c-.1 0-12.5-.3-17.5 1-4 1-9.7 3.1-13.3 10.1-7.6 14.7-2.6 45.1 14.7 90.4z" fill="#5046af"/><path d="m130.2 309.8-.6 8.5s-4.5-6.8-5.1-8.5c-.7-1.7-1.9-6-2-6.4-.1-.3-2.9-1.8-5.7-.8-.7.3-.2 2.7 0 2.7.1 0-1.2-.1-2.6.1-.5.1-.5.9 1.5 1.4.9.2 2.1 1.1 2.7 1.8 1 1.3 2.4 2.9 2.8 3.7.3.7 2.1 10 7.3 15.1 1.5 1.5 4 1 4.9-.9 1.2-2.5 2.5-6.7 2.8-13.8z" fill="#73c8f0"/><path d="m163.9 366c-.6-11.1-.8-11.5-5.5-30.8-.4-1.6-1.8-2.7-3.4-2.7h-16.5c-1.7 0-3.2 1.2-3.4 2.9-3.1 19.4-3.2 19.9-3.2 30.9 0 10.3 2.3 34.6 2.3 34.6.8 1.3 6.1 2 7.6 1.4 0 0 1.2-21.6 1.1-30.1 0-3.4 2.8-21.8 3.5-26.6l1.6.6c1.5 5.6 5.7 22.2 6 25.4.4 4.7 1.9 30.3 1.9 30.3 2.3 1.1 6.7 1.5 8.2-.3-.1.1.4-25.3-.2-35.6z" fill="#5046af"/><path d="m214.9 341.2c-3.5 0-7-.7-10.2-2.5-6-3.5-9.4-10.5-9.9-20.9-.3-5.5-2.1-9.4-5.3-11.7-5.9-4.2-14.9-1.6-15-1.5l-.4-1.2c.4-.1 9.6-2.8 16.1 1.7 3.6 2.5 5.5 6.8 5.8 12.6.5 10 3.6 16.7 9.2 19.9 10.8 6.2 27.3-2.3 27.5-2.3l.6 1.1c-.4.3-9.3 4.8-18.4 4.8z" fill="#5046af"/><path d="m169.1 308.6.6 8.5s4.5-6.8 5.1-8.5c.7-1.7 1.9-6 2-6.4.1-.3 2.9-1.8 5.7-.8.7.3.2 2.7 0 2.7-.1 0 1.2-.1 2.6.1.5.1.5.9-1.5 1.4-.9.2-2.1 1.1-2.7 1.8-1 1.3-2.4 2.9-2.8 3.7-.3.7-2.1 10-7.3 15.1-1.5 1.4-3.9 1-4.9-.8-1.3-2.5-2.8-6.8-3.6-14z" fill="#73c8f0"/><path d="m374.4 407.3h-153.5c-6 0-10.9-4.9-10.9-10.9v-271.5c0-6 4.9-10.9 10.9-10.9h153.5c6 0 10.9 4.9 10.9 10.9v271.5c0 6-4.9 10.9-10.9 10.9z" fill="#827ddc"/><path d="m364.7 383.6h-134.1c-6.3 0-11.3-5.1-11.3-11.3v-223.3c0-6.3 5.1-11.3 11.3-11.3h134.1c6.3 0 11.3 5.1 11.3 11.3v223.3c.1 6.3-5 11.3-11.3 11.3z" fill="#5046af"/><path d="m219.3 221.8h128.8v33.9h-128.8z" fill="#393499"/><g fill="#fff"><path d="m370.1 305.3h-1.6c-.2 0-.3-.1-.3-.3s.1-.3.3-.3h1v-1c0-.2.1-.3.3-.3s.3.1.3.3z"/><path d="m363.4 305.3h-2.5c-.2 0-.3-.1-.3-.3s.1-.3.3-.3h2.5c.2 0 .3.1.3.3.1.1-.1.3-.3.3zm-7.6 0h-2.5c-.2 0-.3-.1-.3-.3s.1-.3.3-.3h2.5c.2 0 .3.1.3.3 0 .1-.1.3-.3.3zm-7.6 0h-2.5c-.2 0-.3-.1-.3-.3s.1-.3.3-.3h2.5c.2 0 .3.1.3.3 0 .1-.2.3-.3.3zm-7.7 0h-2.5c-.2 0-.3-.1-.3-.3s.1-.3.3-.3h2.5c.2 0 .3.1.3.3 0 .1-.1.3-.3.3zm-7.6 0h-2.5c-.2 0-.3-.1-.3-.3s.1-.3.3-.3h2.5c.2 0 .3.1.3.3 0 .1-.1.3-.3.3zm-7.7 0h-2.5c-.2 0-.3-.1-.3-.3s.1-.3.3-.3h2.5c.2 0 .3.1.3.3.1.1-.1.3-.3.3zm-7.6 0h-2.6c-.2 0-.3-.1-.3-.3s.1-.3.3-.3h2.5c.2 0 .3.1.3.3.1.1 0 .3-.2.3zm-7.6 0h-2.5c-.2 0-.3-.1-.3-.3s.1-.3.3-.3h2.5c.2 0 .3.1.3.3 0 .1-.2.3-.3.3zm-7.7 0h-2.5c-.2 0-.3-.1-.3-.3s.1-.3.3-.3h2.5c.2 0 .3.1.3.3 0 .1-.1.3-.3.3zm-7.6 0h-2.5c-.2 0-.3-.1-.3-.3s.1-.3.3-.3h2.5c.2 0 .3.1.3.3 0 .1-.1.3-.3.3zm-7.7 0h-2.5c-.2 0-.3-.1-.3-.3s.1-.3.3-.3h2.5c.2 0 .3.1.3.3.1.1-.1.3-.3.3zm-7.6 0h-2.5c-.2 0-.3-.1-.3-.3s.1-.3.3-.3h2.5c.2 0 .3.1.3.3 0 .1-.1.3-.3.3zm-7.6 0h-2.5c-.2 0-.3-.1-.3-.3s.1-.3.3-.3h2.5c.2 0 .3.1.3.3 0 .1-.2.3-.3.3zm-7.7 0h-2.5c-.2 0-.3-.1-.3-.3s.1-.3.3-.3h2.5c.2 0 .3.1.3.3 0 .1-.1.3-.3.3zm-7.6 0h-2.5c-.2 0-.3-.1-.3-.3s.1-.3.3-.3h2.5c.2 0 .3.1.3.3 0 .1-.1.3-.3.3zm-7.7 0h-2.5c-.2 0-.3-.1-.3-.3s.1-.3.3-.3h2.5c.2 0 .3.1.3.3.1.1-.1.3-.3.3zm-7.6 0h-2.5c-.2 0-.3-.1-.3-.3s.1-.3.3-.3h2.5c.2 0 .3.1.3.3 0 .1-.1.3-.3.3zm-7.6 0h-2.6c-.2 0-.3-.1-.3-.3s.1-.3.3-.3h2.5c.2 0 .3.1.3.3.1.1-.1.3-.2.3z"/><path d="m225.9 305.3h-1.6v-1.6c0-.2.1-.3.3-.3s.3.1.3.3v1h1c.2 0 .3.1.3.3 0 .1-.1.3-.3.3z"/><path d="m224.6 298.3c-.2 0-.3-.1-.3-.3v-2.9c0-.2.1-.3.3-.3s.3.1.3.3v2.9c.1.2-.1.3-.3.3zm0-8.6c-.2 0-.3-.1-.3-.3v-2.9c0-.2.1-.3.3-.3s.3.1.3.3v2.9c.1.2-.1.3-.3.3zm0-8.5c-.2 0-.3-.1-.3-.3v-2.9c0-.2.1-.3.3-.3s.3.1.3.3v2.9c.1.1-.1.3-.3.3z"/><path d="m224.6 272.6c-.2 0-.3-.1-.3-.3v-1.6h1.6c.2 0 .3.1.3.3s-.1.3-.3.3h-1v1c.1.2-.1.3-.3.3z"/><path d="m363.4 271.3h-2.5c-.2 0-.3-.1-.3-.3s.1-.3.3-.3h2.5c.2 0 .3.1.3.3.1.2-.1.3-.3.3zm-7.6 0h-2.5c-.2 0-.3-.1-.3-.3s.1-.3.3-.3h2.5c.2 0 .3.1.3.3s-.1.3-.3.3zm-7.6 0h-2.5c-.2 0-.3-.1-.3-.3s.1-.3.3-.3h2.5c.2 0 .3.1.3.3s-.2.3-.3.3zm-7.7 0h-2.5c-.2 0-.3-.1-.3-.3s.1-.3.3-.3h2.5c.2 0 .3.1.3.3s-.1.3-.3.3zm-7.6 0h-2.5c-.2 0-.3-.1-.3-.3s.1-.3.3-.3h2.5c.2 0 .3.1.3.3s-.2.3-.3.3zm-7.7 0h-2.5c-.2 0-.3-.1-.3-.3s.1-.3.3-.3h2.5c.2 0 .3.1.3.3.1.2-.1.3-.3.3zm-7.6 0h-2.6c-.2 0-.3-.1-.3-.3s.1-.3.3-.3h2.5c.2 0 .3.1.3.3.1.2 0 .3-.2.3zm-7.6 0h-2.5c-.2 0-.3-.1-.3-.3s.1-.3.3-.3h2.5c.2 0 .3.1.3.3s-.2.3-.3.3zm-7.7 0h-2.5c-.2 0-.3-.1-.3-.3s.1-.3.3-.3h2.5c.2 0 .3.1.3.3s-.1.3-.3.3zm-7.6 0h-2.5c-.2 0-.3-.1-.3-.3s.1-.3.3-.3h2.5c.2 0 .3.1.3.3s-.1.3-.3.3zm-7.7 0h-2.5c-.2 0-.3-.1-.3-.3s.1-.3.3-.3h2.5c.2 0 .3.1.3.3.1.2-.1.3-.3.3zm-7.6 0h-2.5c-.2 0-.3-.1-.3-.3s.1-.3.3-.3h2.5c.2 0 .3.1.3.3s-.1.3-.3.3zm-7.6 0h-2.5c-.2 0-.3-.1-.3-.3s.1-.3.3-.3h2.5c.2 0 .3.1.3.3s-.2.3-.3.3zm-7.7 0h-2.5c-.2 0-.3-.1-.3-.3s.1-.3.3-.3h2.5c.2 0 .3.1.3.3s-.1.3-.3.3zm-7.6 0h-2.5c-.2 0-.3-.1-.3-.3s.1-.3.3-.3h2.5c.2 0 .3.1.3.3s-.1.3-.3.3zm-7.7 0h-2.5c-.2 0-.3-.1-.3-.3s.1-.3.3-.3h2.5c.2 0 .3.1.3.3.1.2-.1.3-.3.3zm-7.6 0h-2.5c-.2 0-.3-.1-.3-.3s.1-.3.3-.3h2.5c.2 0 .3.1.3.3s-.1.3-.3.3zm-7.6 0h-2.6c-.2 0-.3-.1-.3-.3s.1-.3.3-.3h2.5c.2 0 .3.1.3.3.1.2-.1.3-.2.3z"/><path d="m369.8 272.6c-.2 0-.3-.1-.3-.3v-1h-1c-.2 0-.3-.1-.3-.3s.1-.3.3-.3h1.6v1.6c0 .2-.1.3-.3.3z"/><path d="m369.8 298.3c-.2 0-.3-.1-.3-.3v-2.9c0-.2.1-.3.3-.3s.3.1.3.3v2.9c0 .2-.1.3-.3.3zm0-8.6c-.2 0-.3-.1-.3-.3v-2.9c0-.2.1-.3.3-.3s.3.1.3.3v2.9c0 .2-.1.3-.3.3zm0-8.5c-.2 0-.3-.1-.3-.3v-2.9c0-.2.1-.3.3-.3s.3.1.3.3v2.9c0 .1-.1.3-.3.3z"/><path d="m370.1 251.7h-1.6c-.2 0-.3-.1-.3-.3s.1-.3.3-.3h1v-1c0-.2.1-.3.3-.3s.3.1.3.3z"/><path d="m363.4 251.7h-2.5c-.2 0-.3-.1-.3-.3s.1-.3.3-.3h2.5c.2 0 .3.1.3.3s-.1.3-.3.3zm-7.6 0h-2.5c-.2 0-.3-.1-.3-.3s.1-.3.3-.3h2.5c.2 0 .3.1.3.3s-.1.3-.3.3zm-7.6 0h-2.5c-.2 0-.3-.1-.3-.3s.1-.3.3-.3h2.5c.2 0 .3.1.3.3s-.2.3-.3.3zm-7.7 0h-2.5c-.2 0-.3-.1-.3-.3s.1-.3.3-.3h2.5c.2 0 .3.1.3.3s-.1.3-.3.3zm-7.6 0h-2.5c-.2 0-.3-.1-.3-.3s.1-.3.3-.3h2.5c.2 0 .3.1.3.3s-.1.3-.3.3zm-7.7 0h-2.5c-.2 0-.3-.1-.3-.3s.1-.3.3-.3h2.5c.2 0 .3.1.3.3s-.1.3-.3.3zm-7.6 0h-2.6c-.2 0-.3-.1-.3-.3s.1-.3.3-.3h2.5c.2 0 .3.1.3.3s0 .3-.2.3zm-7.6 0h-2.5c-.2 0-.3-.1-.3-.3s.1-.3.3-.3h2.5c.2 0 .3.1.3.3s-.2.3-.3.3zm-7.7 0h-2.5c-.2 0-.3-.1-.3-.3s.1-.3.3-.3h2.5c.2 0 .3.1.3.3s-.1.3-.3.3zm-7.6 0h-2.5c-.2 0-.3-.1-.3-.3s.1-.3.3-.3h2.5c.2 0 .3.1.3.3s-.1.3-.3.3zm-7.7 0h-2.5c-.2 0-.3-.1-.3-.3s.1-.3.3-.3h2.5c.2 0 .3.1.3.3s-.1.3-.3.3zm-7.6 0h-2.5c-.2 0-.3-.1-.3-.3s.1-.3.3-.3h2.5c.2 0 .3.1.3.3s-.1.3-.3.3zm-7.6 0h-2.5c-.2 0-.3-.1-.3-.3s.1-.3.3-.3h2.5c.2 0 .3.1.3.3s-.2.3-.3.3zm-7.7 0h-2.5c-.2 0-.3-.1-.3-.3s.1-.3.3-.3h2.5c.2 0 .3.1.3.3s-.1.3-.3.3zm-7.6 0h-2.5c-.2 0-.3-.1-.3-.3s.1-.3.3-.3h2.5c.2 0 .3.1.3.3s-.1.3-.3.3zm-7.7 0h-2.5c-.2 0-.3-.1-.3-.3s.1-.3.3-.3h2.5c.2 0 .3.1.3.3s-.1.3-.3.3zm-7.6 0h-2.5c-.2 0-.3-.1-.3-.3s.1-.3.3-.3h2.5c.2 0 .3.1.3.3s-.1.3-.3.3zm-7.6 0h-2.6c-.2 0-.3-.1-.3-.3s.1-.3.3-.3h2.5c.2 0 .3.1.3.3s-.1.3-.2.3z"/><path d="m225.9 251.7h-1.6v-1.6c0-.2.1-.3.3-.3s.3.1.3.3v1h1c.2 0 .3.1.3.3s-.1.3-.3.3z"/><path d="m224.6 244.7c-.2 0-.3-.1-.3-.3v-2.9c0-.2.1-.3.3-.3s.3.1.3.3v2.9c.1.2-.1.3-.3.3zm0-8.5c-.2 0-.3-.1-.3-.3v-2.9c0-.2.1-.3.3-.3s.3.1.3.3v2.9c.1.1-.1.3-.3.3zm0-8.6c-.2 0-.3-.1-.3-.3v-2.9c0-.2.1-.3.3-.3s.3.1.3.3v2.9c.1.1-.1.3-.3.3z"/><path d="m224.6 219c-.2 0-.3-.1-.3-.3v-1.6h1.6c.2 0 .3.1.3.3s-.1.3-.3.3h-1v1c.1.2-.1.3-.3.3z"/><path d="m363.4 217.8h-2.5c-.2 0-.3-.1-.3-.3s.1-.3.3-.3h2.5c.2 0 .3.1.3.3.1.1-.1.3-.3.3zm-7.6 0h-2.5c-.2 0-.3-.1-.3-.3s.1-.3.3-.3h2.5c.2 0 .3.1.3.3 0 .1-.1.3-.3.3zm-7.6 0h-2.5c-.2 0-.3-.1-.3-.3s.1-.3.3-.3h2.5c.2 0 .3.1.3.3 0 .1-.2.3-.3.3zm-7.7 0h-2.5c-.2 0-.3-.1-.3-.3s.1-.3.3-.3h2.5c.2 0 .3.1.3.3 0 .1-.1.3-.3.3zm-7.6 0h-2.5c-.2 0-.3-.1-.3-.3s.1-.3.3-.3h2.5c.2 0 .3.1.3.3 0 .1-.2.3-.3.3zm-7.7 0h-2.5c-.2 0-.3-.1-.3-.3s.1-.3.3-.3h2.5c.2 0 .3.1.3.3.1.1-.1.3-.3.3zm-7.6 0h-2.6c-.2 0-.3-.1-.3-.3s.1-.3.3-.3h2.5c.2 0 .3.1.3.3.1.1 0 .3-.2.3zm-7.6 0h-2.5c-.2 0-.3-.1-.3-.3s.1-.3.3-.3h2.5c.2 0 .3.1.3.3 0 .1-.2.3-.3.3zm-7.7 0h-2.5c-.2 0-.3-.1-.3-.3s.1-.3.3-.3h2.5c.2 0 .3.1.3.3 0 .1-.1.3-.3.3zm-7.6 0h-2.5c-.2 0-.3-.1-.3-.3s.1-.3.3-.3h2.5c.2 0 .3.1.3.3 0 .1-.1.3-.3.3zm-7.7 0h-2.5c-.2 0-.3-.1-.3-.3s.1-.3.3-.3h2.5c.2 0 .3.1.3.3.1.1-.1.3-.3.3zm-7.6 0h-2.5c-.2 0-.3-.1-.3-.3s.1-.3.3-.3h2.5c.2 0 .3.1.3.3 0 .1-.1.3-.3.3zm-7.6 0h-2.5c-.2 0-.3-.1-.3-.3s.1-.3.3-.3h2.5c.2 0 .3.1.3.3 0 .1-.2.3-.3.3zm-7.7 0h-2.5c-.2 0-.3-.1-.3-.3s.1-.3.3-.3h2.5c.2 0 .3.1.3.3 0 .1-.1.3-.3.3zm-7.6 0h-2.5c-.2 0-.3-.1-.3-.3s.1-.3.3-.3h2.5c.2 0 .3.1.3.3 0 .1-.1.3-.3.3zm-7.7 0h-2.5c-.2 0-.3-.1-.3-.3s.1-.3.3-.3h2.5c.2 0 .3.1.3.3.1.1-.1.3-.3.3zm-7.6 0h-2.5c-.2 0-.3-.1-.3-.3s.1-.3.3-.3h2.5c.2 0 .3.1.3.3 0 .1-.1.3-.3.3zm-7.6 0h-2.6c-.2 0-.3-.1-.3-.3s.1-.3.3-.3h2.5c.2 0 .3.1.3.3.1.1-.1.3-.2.3z"/><path d="m369.8 219c-.2 0-.3-.1-.3-.3v-1h-1c-.2 0-.3-.1-.3-.3s.1-.3.3-.3h1.6v1.6c0 .2-.1.3-.3.3z"/><path d="m369.8 244.7c-.2 0-.3-.1-.3-.3v-2.9c0-.2.1-.3.3-.3s.3.1.3.3v2.9c0 .2-.1.3-.3.3zm0-8.5c-.2 0-.3-.1-.3-.3v-2.9c0-.2.1-.3.3-.3s.3.1.3.3v2.9c0 .1-.1.3-.3.3zm0-8.6c-.2 0-.3-.1-.3-.3v-2.9c0-.2.1-.3.3-.3s.3.1.3.3v2.9c0 .1-.1.3-.3.3z"/><path d="m370.1 198.1h-1.6c-.2 0-.3-.1-.3-.3s.1-.3.3-.3h1v-1c0-.2.1-.3.3-.3s.3.1.3.3z"/><path d="m363.4 198.1h-2.5c-.2 0-.3-.1-.3-.3s.1-.3.3-.3h2.5c.2 0 .3.1.3.3s-.1.3-.3.3zm-7.6 0h-2.5c-.2 0-.3-.1-.3-.3s.1-.3.3-.3h2.5c.2 0 .3.1.3.3s-.1.3-.3.3zm-7.6 0h-2.5c-.2 0-.3-.1-.3-.3s.1-.3.3-.3h2.5c.2 0 .3.1.3.3s-.2.3-.3.3zm-7.7 0h-2.5c-.2 0-.3-.1-.3-.3s.1-.3.3-.3h2.5c.2 0 .3.1.3.3s-.1.3-.3.3zm-7.6 0h-2.5c-.2 0-.3-.1-.3-.3s.1-.3.3-.3h2.5c.2 0 .3.1.3.3s-.1.3-.3.3zm-7.7 0h-2.5c-.2 0-.3-.1-.3-.3s.1-.3.3-.3h2.5c.2 0 .3.1.3.3s-.1.3-.3.3zm-7.6 0h-2.6c-.2 0-.3-.1-.3-.3s.1-.3.3-.3h2.5c.2 0 .3.1.3.3s0 .3-.2.3zm-7.6 0h-2.5c-.2 0-.3-.1-.3-.3s.1-.3.3-.3h2.5c.2 0 .3.1.3.3s-.2.3-.3.3zm-7.7 0h-2.5c-.2 0-.3-.1-.3-.3s.1-.3.3-.3h2.5c.2 0 .3.1.3.3s-.1.3-.3.3zm-7.6 0h-2.5c-.2 0-.3-.1-.3-.3s.1-.3.3-.3h2.5c.2 0 .3.1.3.3s-.1.3-.3.3zm-7.7 0h-2.5c-.2 0-.3-.1-.3-.3s.1-.3.3-.3h2.5c.2 0 .3.1.3.3s-.1.3-.3.3zm-7.6 0h-2.5c-.2 0-.3-.1-.3-.3s.1-.3.3-.3h2.5c.2 0 .3.1.3.3s-.1.3-.3.3zm-7.6 0h-2.5c-.2 0-.3-.1-.3-.3s.1-.3.3-.3h2.5c.2 0 .3.1.3.3s-.2.3-.3.3zm-7.7 0h-2.5c-.2 0-.3-.1-.3-.3s.1-.3.3-.3h2.5c.2 0 .3.1.3.3s-.1.3-.3.3zm-7.6 0h-2.5c-.2 0-.3-.1-.3-.3s.1-.3.3-.3h2.5c.2 0 .3.1.3.3s-.1.3-.3.3zm-7.7 0h-2.5c-.2 0-.3-.1-.3-.3s.1-.3.3-.3h2.5c.2 0 .3.1.3.3s-.1.3-.3.3zm-7.6 0h-2.5c-.2 0-.3-.1-.3-.3s.1-.3.3-.3h2.5c.2 0 .3.1.3.3s-.1.3-.3.3zm-7.6 0h-2.6c-.2 0-.3-.1-.3-.3s.1-.3.3-.3h2.5c.2 0 .3.1.3.3s-.1.3-.2.3z"/><path d="m225.9 198.1h-1.6v-1.6c0-.2.1-.3.3-.3s.3.1.3.3v1h1c.2 0 .3.1.3.3s-.1.3-.3.3z"/><path d="m224.6 191.1c-.2 0-.3-.1-.3-.3v-2.8c0-.2.1-.3.3-.3s.3.1.3.3v2.9c.1.1-.1.2-.3.2zm0-8.5c-.2 0-.3-.1-.3-.3v-2.9c0-.2.1-.3.3-.3s.3.1.3.3v2.9c.1.1-.1.3-.3.3zm0-8.6c-.2 0-.3-.1-.3-.3v-2.9c0-.2.1-.3.3-.3s.3.1.3.3v2.9c.1.2-.1.3-.3.3z"/><path d="m224.6 165.4c-.2 0-.3-.1-.3-.3v-1.6h1.6c.2 0 .3.1.3.3s-.1.3-.3.3h-1v1c.1.2-.1.3-.3.3z"/><path d="m363.4 164.2h-2.5c-.2 0-.3-.1-.3-.3s.1-.3.3-.3h2.5c.2 0 .3.1.3.3.1.1-.1.3-.3.3zm-7.6 0h-2.5c-.2 0-.3-.1-.3-.3s.1-.3.3-.3h2.5c.2 0 .3.1.3.3 0 .1-.1.3-.3.3zm-7.6 0h-2.5c-.2 0-.3-.1-.3-.3s.1-.3.3-.3h2.5c.2 0 .3.1.3.3 0 .1-.2.3-.3.3zm-7.7 0h-2.5c-.2 0-.3-.1-.3-.3s.1-.3.3-.3h2.5c.2 0 .3.1.3.3 0 .1-.1.3-.3.3zm-7.6 0h-2.5c-.2 0-.3-.1-.3-.3s.1-.3.3-.3h2.5c.2 0 .3.1.3.3 0 .1-.2.3-.3.3zm-7.7 0h-2.5c-.2 0-.3-.1-.3-.3s.1-.3.3-.3h2.5c.2 0 .3.1.3.3.1.1-.1.3-.3.3zm-7.6 0h-2.6c-.2 0-.3-.1-.3-.3s.1-.3.3-.3h2.5c.2 0 .3.1.3.3.1.1 0 .3-.2.3zm-7.6 0h-2.5c-.2 0-.3-.1-.3-.3s.1-.3.3-.3h2.5c.2 0 .3.1.3.3 0 .1-.2.3-.3.3zm-7.7 0h-2.5c-.2 0-.3-.1-.3-.3s.1-.3.3-.3h2.5c.2 0 .3.1.3.3 0 .1-.1.3-.3.3zm-7.6 0h-2.5c-.2 0-.3-.1-.3-.3s.1-.3.3-.3h2.5c.2 0 .3.1.3.3 0 .1-.1.3-.3.3zm-7.7 0h-2.5c-.2 0-.3-.1-.3-.3s.1-.3.3-.3h2.5c.2 0 .3.1.3.3.1.1-.1.3-.3.3zm-7.6 0h-2.5c-.2 0-.3-.1-.3-.3s.1-.3.3-.3h2.5c.2 0 .3.1.3.3 0 .1-.1.3-.3.3zm-7.6 0h-2.5c-.2 0-.3-.1-.3-.3s.1-.3.3-.3h2.5c.2 0 .3.1.3.3 0 .1-.2.3-.3.3zm-7.7 0h-2.5c-.2 0-.3-.1-.3-.3s.1-.3.3-.3h2.5c.2 0 .3.1.3.3 0 .1-.1.3-.3.3zm-7.6 0h-2.5c-.2 0-.3-.1-.3-.3s.1-.3.3-.3h2.5c.2 0 .3.1.3.3 0 .1-.1.3-.3.3zm-7.7 0h-2.5c-.2 0-.3-.1-.3-.3s.1-.3.3-.3h2.5c.2 0 .3.1.3.3.1.1-.1.3-.3.3zm-7.6 0h-2.5c-.2 0-.3-.1-.3-.3s.1-.3.3-.3h2.5c.2 0 .3.1.3.3 0 .1-.1.3-.3.3zm-7.6 0h-2.6c-.2 0-.3-.1-.3-.3s.1-.3.3-.3h2.5c.2 0 .3.1.3.3.1.1-.1.3-.2.3z"/><path d="m369.8 165.4c-.2 0-.3-.1-.3-.3v-1h-1c-.2 0-.3-.1-.3-.3s.1-.3.3-.3h1.6v1.6c0 .2-.1.3-.3.3z"/><path d="m369.8 191.1c-.2 0-.3-.1-.3-.3v-2.8c0-.2.1-.3.3-.3s.3.1.3.3v2.9c0 .1-.1.2-.3.2zm0-8.5c-.2 0-.3-.1-.3-.3v-2.9c0-.2.1-.3.3-.3s.3.1.3.3v2.9c0 .1-.1.3-.3.3zm0-8.6c-.2 0-.3-.1-.3-.3v-2.9c0-.2.1-.3.3-.3s.3.1.3.3v2.9c0 .2-.1.3-.3.3z"/></g><path d="m342.8 129.8h-90.3c-1.4 0-2.6-1.2-2.6-2.6 0-1.4 1.2-2.6 2.6-2.6h90.3c1.4 0 2.6 1.2 2.6 2.6.1 1.5-1.1 2.6-2.6 2.6z" fill="#5046af"/><path d="m263.8 399.1h-25.2c-2 0-3.5-1.6-3.5-3.5 0-2 1.6-3.5 3.5-3.5h25.2c2 0 3.5 1.6 3.5 3.5 0 1.9-1.5 3.5-3.5 3.5z" fill="#5046af"/><path d="m356.8 399.1h-25.2c-2 0-3.5-1.6-3.5-3.5 0-2 1.6-3.5 3.5-3.5h25.2c2 0 3.5 1.6 3.5 3.5 0 1.9-1.6 3.5-3.5 3.5z" fill="#5046af"/><path d="m379.1 156.1-45.4-49.6c1.9-1.2 3.1-3.4 3.1-5.8 0-3.4-2.4-6.2-5.6-6.8v-2.6h10.8v-24.2h-10.8v-5.5c3.2-.6 5.6-3.4 5.6-6.8s-2.4-6.2-5.6-6.8v-48h-2.5v48c-3.2.6-5.6 3.4-5.6 6.8s2.4 6.2 5.6 6.8v5.5h-10.8v24.3h10.8v5h1.3c2.4 0 4.3 1.9 4.3 4.3 0 1.7-1 3.1-2.3 3.8l-1.7-1.9-1.9 2.1c-1.6-.6-2.8-2.2-2.8-4h-2.6c0 2.6 1.4 4.8 3.5 6l-45.2 49.4 1.1 1 45.5-49.8c.6.2 1.2.3 1.9.3.8 0 1.6-.2 2.4-.4l45.7 49.9zm-53.5-101.3c0-1.9 1.3-3.6 3.1-4.1v.3h2.5v-.3c1.8.5 3.1 2.2 3.1 4.1 0 2-1.3 3.6-3.1 4.1v-.3h-2.5v.4c-1.8-.6-3.1-2.2-3.1-4.2zm4.5 50.3.1-.1.1.1s-.1 0-.2 0z" fill="#73c8f0"/><path d="m264.2 162.8h111.9v33.9h-111.9z" fill="#393499"/><path d="m257.3 154.2h145.2v33.9h-145.2z" fill="#fff"/><path d="m267.4 161.4h19.4v19.4h-19.4z" fill="#73c8f0"/><path d="m294.8 161.4h100.3v3.8h-100.3z" fill="#73c8f0"/><path d="m294.8 177h100.3v3.8h-100.3z" fill="#73c8f0"/><path d="m387.8 297.4c-2.1.3-3.8 1.7-4.4 3.7l-6.8 20.5h-27v5.2h25.3l-3.4 10.2h-28.1v5.2h26.3l-3.4 10.2h-29.2v5.2h27.4l-3.4 10.2h-29.2v5.2h27.5l-3.4 10.2h-29.2v5.2h27.5l-3.4 10.2h-29.2v5.2h27.5l-1.1 3.2h5.4l21.6-65h.6v-1.7l4.6-13.8h1.7v-5l6-17.9v-6.2z" fill="#41b4e6"/><path d="m434.4 407.3-40.8-106.4c-.8-2-2.6-3.3-4.7-3.5v5.5l7.2 18.7h-27.6v5.2h29.5l3.9 10.2h-27.2v5.2h29.3l3.9 10.2h-26.9v5.2h28.9l3.9 10.2h-28v5.2h30l3.9 10.2h-27.6v5.2h29.6l3.9 10.2h-27.5v5.2h29.5l1.2 3.2h5.6z" fill="#73c8f0"/><ellipse cx="388.1" cy="301" fill="#41b4e6" rx="2.8" ry="5.3"/><path d="m197.1 214h145.2v33.9h-145.2z" fill="#fff"/><path d="m207.1 221.3h19.4v19.4h-19.4z" fill="#73c8f0"/><path d="m234.6 221.3h100.3v3.8h-100.3z" fill="#73c8f0"/><path d="m234.6 236.9h100.3v3.8h-100.3z" fill="#73c8f0"/><path d="m100.6 407.3h-22.6l11.3-38z" fill="#73c8f0"/><path d="m73.9 404.6h31.1v2.7h-31.1z" fill="#73c8f0"/><path d="m78.8 404.6h21l-1.9-6.6h-17.1z" fill="#6e64c3"/><path d="m94.8 387.7-.8-2.8h-9.3l-1.1 3.6-.9 3h13.2z" fill="#6e64c3"/><path d="m283.9 363.1v-5.4h.6v4.8h1.5v.5h-2.1z" fill="#fff"/><path d="m287.9 359c0-.8.4-1.3 1.2-1.3s1.2.5 1.2 1.3v2.8c0 .8-.4 1.3-1.2 1.3s-1.2-.5-1.2-1.3zm.6 2.8c0 .5.2.8.6.8s.6-.3.6-.8v-2.8c0-.5-.2-.8-.6-.8s-.6.3-.6.8z" fill="#fff"/><path d="m293.1 362-.2 1.1h-.5l1-5.4h.9l1 5.4h-.6l-.2-1.1zm0-.5h1.2l-.6-3.1z" fill="#fff"/><path d="m298.5 357.7c.8 0 1.2.5 1.2 1.3v2.7c0 .8-.4 1.3-1.2 1.3h-1.3v-5.4h1.3zm0 4.8c.4 0 .6-.3.6-.8v-2.7c0-.5-.2-.8-.6-.8h-.6v4.3z" fill="#fff"/><path d="m302.4 357.7v5.4h-.6v-5.4z" fill="#fff"/><path d="m305 363.1h-.5v-5.4h.8l1.2 3.9v-3.9h.5v5.4h-.6l-1.4-4.3z" fill="#fff"/><path d="m311.5 359v.5h-.5v-.5c0-.5-.2-.8-.6-.8s-.6.3-.6.8v2.8c0 .5.2.8.6.8s.6-.3.6-.8v-1.1h-.6v-.5h1.1v1.6c0 .8-.4 1.3-1.2 1.3s-1.2-.5-1.2-1.3v-2.8c0-.8.4-1.3 1.2-1.3.9 0 1.2.5 1.2 1.3z" fill="#fff"/><circle cx="299.1" cy="321.9" fill="#fff" r="1.2"/><circle cx="299.1" cy="346.2" fill="#827ddc" r="1.2"/><ellipse cx="295" cy="322.6" fill="#c2c2ef" rx="1.2" ry="1.2" transform="matrix(.9397 -.342 .342 .9397 -92.5539 120.3524)"/><ellipse cx="303.3" cy="345.5" fill="#827ddc" rx="1.2" ry="1.2" transform="matrix(.9397 -.342 .342 .9397 -99.8672 124.5736)"/><ellipse cx="291.3" cy="324.7" fill="#9292f7" rx="1.2" ry="1.2" transform="matrix(.766 -.6428 .6428 .766 -140.5741 263.2408)"/><ellipse cx="307" cy="343.4" fill="#827ddc" rx="1.2" ry="1.2" transform="matrix(.766 -.6428 .6428 .766 -148.8914 277.6469)"/><ellipse cx="288.6" cy="328" fill="#9a9afc" rx="1.2" ry="1.2" transform="matrix(.5 -.866 .866 .5 -139.7161 413.9388)"/><ellipse cx="309.7" cy="340.1" fill="#827ddc" rx="1.2" ry="1.2" transform="matrix(.5 -.866 .866 .5 -139.7162 438.2561)"/><ellipse cx="287.2" cy="331.9" fill="#827ddc" rx="1.2" ry="1.2" transform="matrix(.1736 -.9848 .9848 .1736 -89.5798 557.1125)"/><ellipse cx="311.1" cy="336.2" fill="#827ddc" rx="1.2" ry="1.2" transform="matrix(.1736 -.9848 .9848 .1736 -73.9481 584.1871)"/><ellipse cx="287.2" cy="336.2" fill="#827ddc" rx="1.2" ry="1.2" transform="matrix(.9848 -.1736 .1736 .9848 -54.006 54.9695)"/><ellipse cx="311.1" cy="331.9" fill="#827ddc" rx="1.2" ry="1.2" transform="matrix(.9848 -.1736 .1736 .9848 -52.909 59.0636)"/><ellipse cx="288.6" cy="340.1" fill="#827ddc" rx="1.2" ry="1.2" transform="matrix(.866 -.5 .5 .866 -131.3935 189.8744)"/><ellipse cx="309.7" cy="328" fill="#827ddc" rx="1.2" ry="1.2" transform="matrix(.866 -.5 .5 .866 -122.4932 198.7773)"/><ellipse cx="291.3" cy="343.4" fill="#827ddc" rx="1.2" ry="1.2" transform="matrix(.6428 -.766 .766 .6428 -158.9607 345.8251)"/><ellipse cx="307" cy="324.7" fill="#827ddc" rx="1.2" ry="1.2" transform="matrix(.6428 -.766 .766 .6428 -139.1066 351.1451)"/><ellipse cx="295" cy="345.5" fill="#827ddc" rx="1.2" ry="1.2" transform="matrix(.342 -.9397 .9397 .342 -130.5404 504.5092)"/><ellipse cx="303.3" cy="322.6" fill="#827ddc" rx="1.2" ry="1.2" transform="matrix(.342 -.9397 .9397 .342 -103.5937 497.2909)"/><path d="m142.8 290.8s-9.1 4.3-10.4 5.6c-1.3 1.2-3.6 16.3-3.6 16.3 1.9 2 4.5 3.5 7.5 3.3l.8-4s1.1 8.6 0 12-2.7 11.9-2.7 11.9 10.6 5.8 24.7.4c0 0 2.4-23.4 1.6-28.9.9 3.9 1.1 5.4 1.8 8.5 2.5.4 5.7-1.5 7.5-4.5 0 0-2.8-16.1-6.6-18.6-3-1.9-12.5-3.9-12.5-3.9z" fill="#97f4ec"/><path d="m154.2 277.3c0 1.8-1.4 3.7-2.1 5.3-1.2 3.1-3.5 5.4-6 5.4-1.7 0-3.3-1.1-4.6-2.9-1.6-2.1-1.8-5.2-1.8-8.1 0-5.2 1.8-8.7 6.5-8.7 3.8 0 8 2.3 8 9z" fill="#73c8f0"/><path d="m151.4 292.7c-2.7 1.6-6 1.8-8 .7-.5-.3-.8-.9-.7-1.4.3-2.5.2-5.2-.1-8.1l8-.6c.3 2.8.7 4.7 1.7 6.6.4 1 0 2.2-.9 2.8z" fill="#73c8f0"/><path d="m136.4 310.4-8.3-1.3c-2-.3-3.4-2.2-3.1-4.2.3-2 2.2-3.4 4.2-3.1l8.3 1.3z" fill="#5046af"/><path d="m163.2 303.3 8.1-2c2-.5 4 .7 4.5 2.7.5 2-.7 4-2.7 4.5l-8.1 2z" fill="#5046af"/><path d="m159 305.5h5.1v1.3h-5.1z" fill="#5046af" transform="matrix(.9612 -.2759 .2759 .9612 -78.1878 56.457)"/><path d="m159.9 308h5.1v1.3h-5.1z" fill="#5046af" transform="matrix(.9612 -.2759 .2759 .9612 -78.8426 56.807)"/><path d="m155.6 405.5c.2-.4.7-.7 1.2-.7 1.4.1 4.4.6 6.2-.8.8-.6 1.8-.7 2.7-.6 2.9.5 8 1.5 8.7 5.8 0 0-6.2.8-10.5.1-3.5-.6-8.7-1.8-8.7-1.8.1-.6 0-1.2.4-2z" fill="#73c8f0"/><path d="m142.9 288.6c.8.5 1.6.8 2.5.8 2.2 0 4.2-1.8 5.5-4.3-1.3 1.8-2.9 3-4.7 3-1.2 0-2.3-.5-3.3-1.4-.1.5 0 1.2 0 1.9z" fill="#41b4e6"/><path d="m154.5 279h-1.9c-.8 0-1.4-.6-1.4-1.4v-4.3h3.3z" fill="#0091c8"/><path d="m154.5 279.4c-.1 1.4-.8 2.5-1.5 2.4s-1-1.2-.9-2.7c.1-1.4.8-2.5 1.5-2.5.7.1 1 1.3.9 2.8z" fill="#73c8f0"/><path d="m153.9 275.6h-9.7c-2.3 0-4.1-1.8-4.1-4.1 0-1.9 1.6-3.5 3.5-3.5h7.2c1.8 0 3.2 1.4 3.2 3.2v4.4z" fill="#0091c8"/><path d="m372.2 241.2c-2.4-1-5.7-1.6-9.9-2.6-1.6-1.9-8-7.9-12.8-12.8-.7-.7-1.2-2.2-1.3-3.1-.3-2.3-.5-6.1-1.1-5.8-.7.3-.9 2.2-.9 2.9 0 .3-.4.5-.7.4s-.6-.3-.9-.5-4.3-2.6-4.7-2c-.2.3 1.8 2 2.6 2.6-.1.1-.1.2-.2.3-1.4-.5-3.7-1.3-3.9-.8-.2.4 2.8 2 3.4 2.3 0 .1-.1.2-.1.4-1.5-.4-3.6-.9-3.7-.4-.1.4 2.7 1.6 3.5 2v.1.2c-1.4-.1-2.9-.1-2.9.2s2.9.9 3.8 1.1c.1 0 .1.1.2.1l3.5 1.5s7 14.2 12.8 16.8c0 0 14.1 4.5 14.1 4.5z" fill="#73c8f0"/><path d="m387.3 211.3c2.8-.6 8.1.9 8.2 6s-.6 13.1-5.2 14.4c-2.6.7-5.8 0-7.2-2.1-1.1-1.6-1.5-4.5-1.7-5.6-1-4.2-2.5-11 5.9-12.7z" fill="#73c8f0"/><path d="m386.4 228.6-1.9 7.1s2.1 2.3 4.8 2.1c2.6-.2 6.6-3 6.6-3s-2.8-3.5-2.8-6.1z" fill="#73c8f0"/><path d="m379.3 218.5s-.4-8.7 8.6-7.8c1.6.2 4.2.4 5.6 1 3.7 1.7 4 4.3 3.6 8.4-.5 5.3-3.9 9.1-2.8 10.5h-4c-1.6 0-3-1-3.5-2.5-.4-1.4-.5-2.8-.3-4.3 0-.5.5-4.6-2.4-3.7-2.9 1-4.8-1.6-4.8-1.6z" fill="#0091c8"/><ellipse cx="385.5" cy="222" fill="#73c8f0" rx="1.7" ry="2.5"/><path d="m381.2 222.5-.7 2.5c-.1.4.1.7.5.7l2.1.1z" fill="#73c8f0"/><path d="m406.1 287.9-.7-4.1s9-15 7.9-22c0 0-4.3-15.9-4.3-15.9l-6.3 5.4c.5 2.8 1.9 6.3 3.5 10.7-.8 2.7-2.5 12.1-4.2 19.6-.2 1-1.3 2.4-2.1 3.1-2 1.6-5.4 4.1-4.7 4.5s2.6-.5 3.2-.9c.3-.2.7 0 .8.4 0 .3.1.7.1 1.1s.2 5.6 1 5.6c.4 0 .8-2.8.9-4h.4c.4 1.6 1 4.3 1.6 4.2.5-.1.2-3.8.1-4.6.1 0 .3-.1.4-.1.5 1.6 1.4 3.8 1.9 3.7.4-.1-.1-3.4-.3-4.5 0 0 .1 0 .1-.1.1 0 .1-.1.2-.2.8 1.3 1.7 2.7 2 2.5s-.9-3.3-1.2-4.1c-.3-.2-.2-.3-.3-.3z" fill="#73c8f0"/><path d="m358.9 318.6c1.7 1.1 3.6 2 6.9 1.5.4-1.3.4-3 0-4.9h-6.4c1.1 1.3.7 2.7-.5 3.4z" fill="#c8e6eb"/><path d="m367.6 319.8c-.2-.5-.7-.7-1.2-.7-1.4.1-4.5.6-6.3-.8-.8-.6-1.8-.8-2.8-.6-2.9.5-8.2 1.5-8.9 6 0 0 6.1-.1 10.5-.4 4.7-.3 9-1.3 9-1.3 0-.7.1-1.4-.3-2.2z" fill="#73c8f0"/><path d="m377.3 276.5c-12.8-3-19.1-4.8-19.1 7 0 10.5.4 31.6.4 31.6.8 1.3 6.2 2 7.7 1.4 0 0 1.8-20.6 2.3-29.3 9.5.6 22.4 4.7 22.4 4.7z" fill="#41378c"/><path d="m397.2 349.4 7.7 1.6c.7-1.4.6-3.1 0-4.9h-6.4c.4 1.4.5 2.4-1.3 3.3z" fill="#c8e6eb"/><path d="m399.6 276.5c5.3 22.4 3.5 23.2 4.2 35 .6 10.5 2.2 35.4 2.2 35.4-1.5 1.8-6.1 1.5-8.4.3 0 0-3.6-25.1-4-29.9-.3-4-5.3-30-5.3-30z" fill="#41378c"/><path d="m378.1 277 .1-2.2 20.8-1.3v4.5l-9.8 12.5-3.3-1.2z" fill="#41378c"/><path d="m406.2 350.7c-.2-.5-.7-.7-1.2-.7-1.4.1-4.5.6-6.3-.8-.8-.6-1.8-.8-2.8-.6-2.9.5-8.2 1.5-8.9 6 0 0 5.6 0 10.8-.4 3.6-.3 8.7-1.3 8.7-1.3 0-.7.1-1.4-.3-2.2z" fill="#73c8f0"/><path d="m404.2 235.7c-.5-.3-1.1-.6-1.8-.8-.6-.2-1.3-.4-2-.6-4.9-1.2-10-1.3-15-.6l-1.6.2s-3.8 1.8-6.9 3.4v.1c-3.5 2.4-8.3 2.6-13.5.2-1.1 2.6-2 7-.6 9.8 5.8 2.5 11.4 3 14.8 1.3h.1c.4 4.4.8 8.3.8 8.1.1 1.6 1.1 6.7.8 11.7-.2 3.6-2 7.8-2 7.8s10.3 14.9 24.7 10.6c0 0 1.6-22.8.4-35.1.8 3 1.1 4.5 1.8 7.3 2.5.3 5.8-1.7 7.5-4.8-.1.1-3.5-16.2-7.5-18.6z" fill="#97f4ec"/><path d="m323.1 407.3 34.8-104.5s0-.1.1-.2v-5.2c-2.3.1-4.2 1.5-4.9 3.7l-35.3 106.1h5.3z" fill="#41b4e6"/><path d="m404.1 407.3-40.8-106.4c-.7-1.9-2.3-3.1-4.2-3.4v6.7l39.5 103.1z" fill="#73c8f0"/><ellipse cx="358.5" cy="301.4" fill="#41b4e6" rx="2.8" ry="5.3"/></svg>